# WaveFront *.obj file (generated by CINEMA 4D)

mtllib ./techneC.mtl

v 4.75160312652588 11.07836246490479 0
v 30.7516040802002 30.41176223754883 0
v 28.12227249145508 33.94776153564453 0
v 22.3638973236084 40.45835494995117 0
v 16.01522827148438 46.39230728149414 0
v 9.44852066040039 51.45694732666016 0
v 3.38721656799316 55.29323577880859 0
v -3.37117743492126 58.71173095703125 0
v -10.80720615386963 61.50353622436523 0
v -16.81722068786621 63.06046676635742 0
v -23.18925476074219 64.05924987792969 0
v -29.91509628295898 64.41175842285156 0
v -37.30218887329102 64.05941009521484 0
v -44.44480895996094 63.02576065063477 0
v -51.3149299621582 61.34590911865234 0
v -57.88452529907227 59.05495834350586 0
v -64.12556457519531 56.18800354003906 0
v -70.01003265380859 52.7801513671875 0
v -75.5098876953125 48.86650085449219 0
v -80.59712219238281 44.48214721679688 0
v -85.24369049072266 39.66219329833984 0
v -89.42157745361328 34.44174194335938 0
v -93.10275268554688 28.85588836669922 0
v -96.25920104980469 22.93973541259766 0
v -98.86287689208984 16.7283821105957 0
v -100.88576507568359 10.25693130493164 0
v -102.29984283447266 3.56047964096069 0
v -102.89049530029297 -1.01148760318756 0
v -103.22760009765625 -8.00493812561035 0
v -102.76363372802734 -16.42008018493652 0
v -101.37029266357422 -24.82203674316406 0
v -99.04539489746094 -33.08562469482422 0
v -95.78677368164062 -41.08565521240234 0
v -92.72872924804688 -46.83741760253906 0
v -89.14333343505859 -52.31770324707031 0
v -85.02964782714844 -57.47370147705078 0
v -80.38676452636719 -62.25259780883789 0
v -75.21376037597656 -66.60157775878906 0
v -69.50971984863281 -70.46784210205078 0
v -63.27373123168945 -73.79856872558594 0
v -56.5048713684082 -76.54093933105469 0
v -49.20221710205078 -78.64215850830078 0
v -41.36486053466797 -80.04940032958984 0
v -35.84244155883789 -80.57594299316406 0
v -30.08169746398926 -80.75493621826172 0
v -22.64420318603516 -80.38125610351562 0
v -15.68968486785889 -79.32249450683594 0
v -9.21511554718018 -77.67207336425781 0
v -3.21747326850891 -75.52341461181641 0
v 4.04272413253784 -72.04496002197266 0
v 10.46759605407715 -68.06826019287109 0
v 16.06431007385254 -63.81476211547852 0
v 21.90652275085449 -58.44599151611328 0
v 27.24359703063965 -52.49824523925781 0
v 31.1932430267334 -47.18598556518555 0
v 32.75160217285156 -44.71323776245117 0
v 5.9183030128479 -25.92163848876953 0
v 5.10558414459229 -27.38527297973633 0
v 3.00228977203369 -30.52963066101074 0
v 0.10413629561663 -34.05013656616211 0
v -3.12029814720154 -37.22794723510742 0
v -6.24973297119141 -39.7456169128418 0
v -9.88348579406738 -42.09944915771484 0
v -12.94838428497314 -43.67845153808594 0
v -16.31107330322266 -45.03627395629883 0
v -19.97760009765625 -46.11761856079102 0
v -23.95401382446289 -46.86718368530273 0
v -26.78010177612305 -47.15526962280273 0
v -29.7483959197998 -47.25493621826172 0
v -34.87679290771484 -47.01971435546875 0
v -39.59054183959961 -46.33794784545898 0
v -43.90249633789062 -45.24549102783203 0
v -47.82550430297852 -43.77820587158203 0
v -51.37241744995117 -41.97194671630859 0
v -54.55609512329102 -39.86256408691406 0
v -57.38938140869141 -37.48591995239258 0
v -59.88512802124023 -34.87786483764648 0
v -62.05619430541992 -32.07426071166992 0
v -63.91542816162109 -29.11096000671387 0
v -65.47567749023438 -26.02381896972656 0
v -67.11315155029297 -21.77696228027344 0
v -68.27241516113281 -17.45868301391602 0
v -68.98393249511719 -13.15397071838379 0
v -69.18130493164062 -11.0332612991333 0
v -69.29010009765625 -7.92163801193237 0
v -68.98990631103516 -2.70386552810669 0
v -68.38134002685547 1.0604909658432 0
v -67.45709991455078 4.67927885055542 0
v -66.22882843017578 8.13640880584717 0
v -64.70820617675781 11.41578960418701 0
v -62.90689468383789 14.50133419036865 0
v -60.83655166625977 17.37694931030273 0
v -58.50884628295898 20.02655029296875 0
v -55.93544006347656 22.43404197692871 0
v -53.12799835205078 24.58333778381348 0
v -50.09818649291992 26.45834732055664 0
v -46.85766220092773 28.04298210144043 0
v -43.41809844970703 29.3211498260498 0
v -39.7911491394043 30.27676200866699 0
v -35.98848724365234 30.89373016357422 0
v -33.36152267456055 31.10895919799805 0
v -30.66509628295898 31.16176223754883 0
v -26.65326309204102 30.91348838806152 0
v -22.86907577514648 30.29336929321289 0
v -19.31524085998535 29.35247993469238 0
v -15.994460105896 28.14189910888672 0
v -11.93396186828613 26.19655227661133 0
v -8.2990083694458 23.98362731933594 0
v -4.36350917816162 21.02563667297363 0
v -0.54945796728134 17.50682830810547 0
v 2.62021899223328 13.96043968200684 0
v 4.21514987945557 11.86698436737061 0
v 4.75160312652588 11.07836246490479 65
v 30.7516040802002 30.41176223754883 65
v 28.12227249145508 33.94776153564453 65
v 22.3638973236084 40.45835494995117 65
v 16.01522827148438 46.39230728149414 65
v 9.44852066040039 51.45694732666016 65
v 3.38721656799316 55.29323577880859 65
v -3.37117743492126 58.71173095703125 65
v -10.80720615386963 61.50353622436523 65
v -16.81722068786621 63.06046676635742 65
v -23.18925476074219 64.05924987792969 65
v -29.91509628295898 64.41175842285156 65
v -37.30218887329102 64.05941009521484 65
v -44.44480895996094 63.02576065063477 65
v -51.3149299621582 61.34590911865234 65
v -57.88452529907227 59.05495834350586 65
v -64.12556457519531 56.18800354003906 65
v -70.01003265380859 52.7801513671875 65
v -75.5098876953125 48.86650085449219 65
v -80.59712219238281 44.48214721679688 65
v -85.24369049072266 39.66219329833984 65
v -89.42157745361328 34.44174194335938 65
v -93.10275268554688 28.85588836669922 65
v -96.25920104980469 22.93973541259766 65
v -98.86287689208984 16.7283821105957 65
v -100.88576507568359 10.25693130493164 65
v -102.29984283447266 3.56047964096069 65
v -102.89049530029297 -1.01148760318756 65
v -103.22760009765625 -8.00493812561035 65
v -102.76363372802734 -16.42008018493652 65
v -101.37029266357422 -24.82203674316406 65
v -99.04539489746094 -33.08562469482422 65
v -95.78677368164062 -41.08565521240234 65
v -92.72872924804688 -46.83741760253906 65
v -89.14333343505859 -52.31770324707031 65
v -85.02964782714844 -57.47370147705078 65
v -80.38676452636719 -62.25259780883789 65
v -75.21376037597656 -66.60157775878906 65
v -69.50971984863281 -70.46784210205078 65
v -63.27373123168945 -73.79856872558594 65
v -56.5048713684082 -76.54093933105469 65
v -49.20221710205078 -78.64215850830078 65
v -41.36486053466797 -80.04940032958984 65
v -35.84244155883789 -80.57594299316406 65
v -30.08169746398926 -80.75493621826172 65
v -22.64420318603516 -80.38125610351562 65
v -15.68968486785889 -79.32249450683594 65
v -9.21511554718018 -77.67207336425781 65
v -3.21747326850891 -75.52341461181641 65
v 4.04272413253784 -72.04496002197266 65
v 10.46759605407715 -68.06826019287109 65
v 16.06431007385254 -63.81476211547852 65
v 21.90652275085449 -58.44599151611328 65
v 27.24359703063965 -52.49824523925781 65
v 31.1932430267334 -47.18598556518555 65
v 32.75160217285156 -44.71323776245117 65
v 5.9183030128479 -25.92163848876953 65
v 5.10558414459229 -27.38527297973633 65
v 3.00228977203369 -30.52963066101074 65
v 0.10413629561663 -34.05013656616211 65
v -3.12029814720154 -37.22794723510742 65
v -6.24973297119141 -39.7456169128418 65
v -9.88348579406738 -42.09944915771484 65
v -12.94838428497314 -43.67845153808594 65
v -16.31107330322266 -45.03627395629883 65
v -19.97760009765625 -46.11761856079102 65
v -23.95401382446289 -46.86718368530273 65
v -26.78010177612305 -47.15526962280273 65
v -29.7483959197998 -47.25493621826172 65
v -34.87679290771484 -47.01971435546875 65
v -39.59054183959961 -46.33794784545898 65
v -43.90249633789062 -45.24549102783203 65
v -47.82550430297852 -43.77820587158203 65
v -51.37241744995117 -41.97194671630859 65
v -54.55609512329102 -39.86256408691406 65
v -57.38938140869141 -37.48591995239258 65
v -59.88512802124023 -34.87786483764648 65
v -62.05619430541992 -32.07426071166992 65
v -63.91542816162109 -29.11096000671387 65
v -65.47567749023438 -26.02381896972656 65
v -67.11315155029297 -21.77696228027344 65
v -68.27241516113281 -17.45868301391602 65
v -68.98393249511719 -13.15397071838379 65
v -69.18130493164062 -11.0332612991333 65
v -69.29010009765625 -7.92163801193237 65
v -68.98990631103516 -2.70386552810669 65
v -68.38134002685547 1.0604909658432 65
v -67.45709991455078 4.67927885055542 65
v -66.22882843017578 8.13640880584717 65
v -64.70820617675781 11.41578960418701 65
v -62.90689468383789 14.50133419036865 65
v -60.83655166625977 17.37694931030273 65
v -58.50884628295898 20.02655029296875 65
v -55.93544006347656 22.43404197692871 65
v -53.12799835205078 24.58333778381348 65
v -50.09818649291992 26.45834732055664 65
v -46.85766220092773 28.04298210144043 65
v -43.41809844970703 29.3211498260498 65
v -39.7911491394043 30.27676200866699 65
v -35.98848724365234 30.89373016357422 65
v -33.36152267456055 31.10895919799805 65
v -30.66509628295898 31.16176223754883 65
v -26.65326309204102 30.91348838806152 65
v -22.86907577514648 30.29336929321289 65
v -19.31524085998535 29.35247993469238 65
v -15.994460105896 28.14189910888672 65
v -11.93396186828613 26.19655227661133 65
v -8.2990083694458 23.98362731933594 65
v -4.36350917816162 21.02563667297363 65
v -0.54945796728134 17.50682830810547 65
v 2.62021899223328 13.96043968200684 65
v 4.21514987945557 11.86698436737061 65
# 224 vertices

vn 0.59670412540436 -0.80246132612228 0
vn 0.80246245861053 0.59670257568359 0
vn 0.77645540237427 0.63017219305038 0
vn 0.71675616502762 0.69732385873795 0
vn 0.6475065946579 0.76205986738205 0
vn 0.57337546348572 0.81929272413254 0
vn 0.49364799261093 0.86966180801392 0
vn 0.40202170610428 0.91563010215759 0
vn 0.30155327916145 0.95344930887222 0
vn 0.20305967330933 0.97916638851166 0
vn 0.10373447090387 0.99460500478744 0
vn 0.00235072150826 0.99999725818634 0
vn -0.0955438837409 0.9954252243042 0
vn -0.19059097766876 0.98166954517364 0
vn -0.28372091054916 0.95890688896179 0
vn -0.37377622723579 0.92751890420914 0
vn -0.4598043859005 0.88802021741867 0
vn -0.54105967283249 0.84098422527313 0
vn -0.61697560548782 0.78698223829269 0
vn -0.68712037801743 0.72654360532761 0
vn -0.75114470720291 0.66013753414154 0
vn -0.80873173475266 0.58817768096924 0
vn -0.85955417156219 0.51104462146759 0
vn -0.90324640274048 0.42912235856056 0
vn -0.93939077854156 0.34284830093384 0
vn -0.96752762794495 0.25276526808739 0
vn -0.98587185144424 0.16750127077103 0
vn -0.99610215425491 0.08820723742247 0
vn -0.99999403953552 -0.00345663772896 0
vn -0.99398797750473 -0.10948935896158 0
vn -0.97605073451996 -0.21754290163517 0
vn -0.94587063789368 -0.32454395294189 0
vn -0.90571451187134 -0.42388823628426 0
vn -0.86077576875687 -0.50898432731628 0
vn -0.81015133857727 -0.58622074127197 0
vn -0.75035715103149 -0.66103267669678 0
vn -0.68123888969421 -0.73206114768982 0
vn -0.60309565067291 -0.79766887426376 0
vn -0.51681089401245 -0.85609954595566 0
vn -0.42390203475952 -0.9057080745697 0
vn -0.32645419239998 -0.94521301984787 0
vn -0.22692006826401 -0.97391337156296 0
vn -0.13593856990337 -0.99071729183197 0
vn -0.06301832199097 -0.99801236391068 0
vn 0.00956951547414 -0.99995422363281 0
vn 0.10047082602978 -0.99493998289108 0
vn 0.19899939000607 -0.97999960184097 0
vn 0.29246106743813 -0.95627743005753 0
vn 0.38517954945564 -0.92284166812897 0
vn 0.4798811674118 -0.87733352184296 0
vn 0.56633722782135 -0.8241736292839 0
vn 0.64156097173691 -0.76707202196121 0
vn 0.71128624677658 -0.70290243625641 0
vn 0.77420955896378 -0.6329293847084 0
vn 0.82486516237259 -0.56532949209213 0
vn 0.84601002931595 -0.53316694498062 0
vn 0.57363218069077 0.81911301612854 0
vn -0.87426161766052 0.4854551255703 0
vn -0.8534539937973 0.52116817235947 0
vn -0.80260461568832 0.5965114235878 0
vn -0.73798930644989 0.67481237649918 0
vn -0.6652295589447 0.74663889408112 0
vn -0.58602613210678 0.81029218435287 0
vn -0.50144237279892 0.86519104242325 0
vn -0.41664123535156 0.90907102823257 0
vn -0.32903489470482 0.94431775808334 0
vn -0.23435468971729 0.97215116024017 0
vn -0.14345517754555 0.98965680599213 0
vn -0.0675243884325 0.99771761894226 0
vn 0.00613494589925 0.99998116493225 0
vn 0.09459434449673 0.9955158829689 0
vn 0.1946355253458 0.98087561130524 0
vn 0.29840672016144 0.95443880558014 0
vn 0.4027005136013 0.91533178091049 0
vn 0.50388187170029 0.86377257108688 0
vn 0.59844934940338 0.801160633564 0
vn 0.68360185623169 0.72985517978668 0
vn 0.75760459899902 0.65271377563477 0
vn 0.81985914707184 0.57256525754929 0
vn 0.8707115650177 0.49179401993752 0
vn 0.91390907764435 0.40591901540756 0
vn 0.95075309276581 0.30994921922684 0
vn 0.97739285230637 0.21143127977848 0
vn 0.99178028106689 0.12795262038708 0
vn 0.99796062707901 0.06383237987757 0
vn 0.99993658065796 -0.01125961355865 0
vn 0.99407905340195 -0.10865917801857 0
vn 0.97902703285217 -0.20373050868511 0
vn 0.95659381151199 -0.29142466187477 0
vn 0.92575114965439 -0.37813332676888 0
vn 0.88639450073242 -0.46293058991432 0
vn 0.83853477239609 -0.54484802484512 0
vn 0.7823241353035 -0.62287151813507 0
vn 0.71808069944382 -0.69595986604691 0
vn 0.64631569385529 -0.76307010650635 0
vn 0.56775790452957 -0.82319557666779 0
vn 0.4833613038063 -0.8754209280014 0
vn 0.39429754018784 -0.91898280382156 0
vn 0.30192086100578 -0.95333302021027 0
vn 0.20770944654942 -0.9781905412674 0
vn 0.12099923193455 -0.99265259504318 0
vn 0.05064243078232 -0.99871683120728 0
vn -0.02111166715622 -0.99977713823318 0
vn -0.11188227683306 -0.99372148513794 0
vn -0.20906753838062 -0.97790122032166 0
vn -0.29952535033226 -0.95408833026886 0
vn -0.38773939013481 -0.92176902294159 0
vn -0.47663182020187 -0.8791030049324 0
vn -0.56108570098877 -0.82775771617889 0
vn -0.6402673125267 -0.76815217733383 0
vn -0.71266770362854 -0.70150178670883 0
vn -0.77111315727234 -0.63669812679291 0
vn -0.81143283843994 -0.58444565534592 0
vn -0.82683366537094 -0.56244647502899 0
# 114 normals

o 押し出し
usemtl Mat
f 1//1 2//1 114//1 113//1
f 2//2 3//3 115//3 114//2
f 3//3 4//4 116//4 115//3
f 4//4 5//5 117//5 116//4
f 5//5 6//6 118//6 117//5
f 6//6 7//7 119//7 118//6
f 7//7 8//8 120//8 119//7
f 8//8 9//9 121//9 120//8
f 9//9 10//10 122//10 121//9
f 10//10 11//11 123//11 122//10
f 11//11 12//12 124//12 123//11
f 12//12 13//13 125//13 124//12
f 13//13 14//14 126//14 125//13
f 14//14 15//15 127//15 126//14
f 15//15 16//16 128//16 127//15
f 16//16 17//17 129//17 128//16
f 17//17 18//18 130//18 129//17
f 18//18 19//19 131//19 130//18
f 19//19 20//20 132//20 131//19
f 20//20 21//21 133//21 132//20
f 21//21 22//22 134//22 133//21
f 22//22 23//23 135//23 134//22
f 23//23 24//24 136//24 135//23
f 24//24 25//25 137//25 136//24
f 25//25 26//26 138//26 137//25
f 26//26 27//27 139//27 138//26
f 27//27 28//28 140//28 139//27
f 28//28 29//29 141//29 140//28
f 29//29 30//30 142//30 141//29
f 30//30 31//31 143//31 142//30
f 31//31 32//32 144//32 143//31
f 32//32 33//33 145//33 144//32
f 33//33 34//34 146//34 145//33
f 34//34 35//35 147//35 146//34
f 35//35 36//36 148//36 147//35
f 36//36 37//37 149//37 148//36
f 37//37 38//38 150//38 149//37
f 38//38 39//39 151//39 150//38
f 39//39 40//40 152//40 151//39
f 40//40 41//41 153//41 152//40
f 41//41 42//42 154//42 153//41
f 42//42 43//43 155//43 154//42
f 43//43 44//44 156//44 155//43
f 44//44 45//45 157//45 156//44
f 45//45 46//46 158//46 157//45
f 46//46 47//47 159//47 158//46
f 47//47 48//48 160//48 159//47
f 48//48 49//49 161//49 160//48
f 49//49 50//50 162//50 161//49
f 50//50 51//51 163//51 162//50
f 51//51 52//52 164//52 163//51
f 52//52 53//53 165//53 164//52
f 53//53 54//54 166//54 165//53
f 54//54 55//55 167//55 166//54
f 55//55 56//56 168//56 167//55
f 56//57 57//57 169//57 168//57
f 57//58 58//59 170//59 169//58
f 58//59 59//60 171//60 170//59
f 59//60 60//61 172//61 171//60
f 60//61 61//62 173//62 172//61
f 61//62 62//63 174//63 173//62
f 62//63 63//64 175//64 174//63
f 63//64 64//65 176//65 175//64
f 64//65 65//66 177//66 176//65
f 65//66 66//67 178//67 177//66
f 66//67 67//68 179//68 178//67
f 67//68 68//69 180//69 179//68
f 68//69 69//70 181//70 180//69
f 69//70 70//71 182//71 181//70
f 70//71 71//72 183//72 182//71
f 71//72 72//73 184//73 183//72
f 72//73 73//74 185//74 184//73
f 73//74 74//75 186//75 185//74
f 74//75 75//76 187//76 186//75
f 75//76 76//77 188//77 187//76
f 76//77 77//78 189//78 188//77
f 77//78 78//79 190//79 189//78
f 78//79 79//80 191//80 190//79
f 79//80 80//81 192//81 191//80
f 80//81 81//82 193//82 192//81
f 81//82 82//83 194//83 193//82
f 82//83 83//84 195//84 194//83
f 83//84 84//85 196//85 195//84
f 84//85 85//86 197//86 196//85
f 85//86 86//87 198//87 197//86
f 86//87 87//88 199//88 198//87
f 87//88 88//89 200//89 199//88
f 88//89 89//90 201//90 200//89
f 89//90 90//91 202//91 201//90
f 90//91 91//92 203//92 202//91
f 91//92 92//93 204//93 203//92
f 92//93 93//94 205//94 204//93
f 93//94 94//95 206//95 205//94
f 94//95 95//96 207//96 206//95
f 95//96 96//97 208//97 207//96
f 96//97 97//98 209//98 208//97
f 97//98 98//99 210//99 209//98
f 98//99 99//100 211//100 210//99
f 99//100 100//101 212//101 211//100
f 100//101 101//102 213//102 212//101
f 101//102 102//103 214//103 213//102
f 102//103 103//104 215//104 214//103
f 103//104 104//105 216//105 215//104
f 104//105 105//106 217//106 216//105
f 105//106 106//107 218//107 217//106
f 106//107 107//108 219//108 218//107
f 107//108 108//109 220//109 219//108
f 108//109 109//110 221//110 220//109
f 109//110 110//111 222//111 221//110
f 110//111 111//112 223//112 222//111
f 111//112 112//113 224//113 223//112
f 112//113 1//114 113//114 224//113

# 0 vertex

vn 0 0 -1
vn 0 0 0
# 2 normals

o キャップ_1
usemtl Mat
f 112//115 3//115 2//115
f 112//115 2//115 1//115
f 112//115 111//115 3//115
f 111//115 4//115 3//115
f 111//115 110//115 4//115
f 110//115 109//115 4//115
f 109//115 5//115 4//115
f 109//115 108//115 5//115
f 108//115 6//115 5//115
f 108//115 107//115 6//115
f 107//115 7//115 6//115
f 107//115 106//115 7//115
f 106//115 8//115 7//115
f 106//115 105//115 8//115
f 105//115 9//115 8//115
f 105//115 104//115 9//115
f 104//115 10//115 9//115
f 104//115 103//115 10//115
f 103//115 11//115 10//115
f 103//115 102//115 12//115
f 103//115 12//115 11//115
f 102//115 101//115 12//115
f 101//115 100//115 13//115
f 101//115 13//115 12//115
f 100//115 99//115 14//115
f 100//115 14//115 13//115
f 99//115 98//115 15//115
f 99//115 15//115 14//115
f 98//115 97//115 16//115
f 98//115 16//115 15//115
f 97//115 96//115 17//115
f 97//115 17//115 16//115
f 96//115 95//115 18//115
f 96//115 18//115 17//115
f 95//115 94//115 19//115
f 95//115 19//115 18//115
f 94//115 93//115 20//115
f 94//115 20//115 19//115
f 93//115 92//115 21//115
f 93//115 21//115 20//115
f 92//115 91//115 22//115
f 92//115 22//115 21//115
f 91//115 90//115 23//115
f 91//115 23//115 22//115
f 90//115 89//115 24//115
f 90//115 24//115 23//115
f 89//115 88//115 25//115
f 89//115 25//115 24//115
f 88//115 87//115 26//115
f 88//115 26//115 25//115
f 87//115 86//115 27//115
f 87//115 27//115 26//115
f 86//115 85//115 28//115
f 86//115 28//115 27//115
f 85//115 84//115 29//115
f 85//115 29//115 28//115
f 84//115 83//115 30//115
f 84//115 30//115 29//115
f 83//115 82//115 31//115
f 83//115 31//115 30//115
f 82//115 81//115 31//115
f 81//115 80//115 32//115
f 81//115 32//115 31//115
f 80//115 79//115 33//115
f 80//115 33//115 32//115
f 79//115 78//115 34//115
f 79//115 34//115 33//115
f 78//115 77//115 35//115
f 78//115 35//115 34//115
f 77//115 76//115 36//115
f 77//115 36//115 35//115
f 76//115 75//115 38//115
f 76//115 38//115 37//115
f 76//115 37//115 36//115
f 75//115 74//115 39//115
f 75//115 39//115 38//115
f 74//115 73//115 40//115
f 74//115 40//115 39//115
f 73//115 72//115 41//115
f 73//115 41//115 40//115
f 72//115 71//115 42//115
f 72//115 42//115 41//115
f 71//115 70//115 43//115
f 71//115 43//115 42//115
f 70//115 69//115 44//115
f 70//115 44//115 43//115
f 69//115 68//115 45//115
f 69//115 45//115 44//115
f 68//115 67//115 46//115
f 68//115 46//115 45//115
f 67//115 66//115 47//115
f 67//115 47//115 46//115
f 66//115 65//115 48//115
f 66//115 48//115 47//115
f 65//115 64//115 49//115
f 65//115 49//115 48//115
f 64//115 63//115 50//115
f 64//115 50//115 49//115
f 63//115 62//115 51//115
f 63//115 51//115 50//115
f 62//115 61//115 52//115
f 62//115 52//115 51//115
f 61//115 60//115 53//115
f 61//115 53//115 52//115
f 60//115 59//115 54//115
f 60//115 54//115 53//115
f 59//115 58//115 55//115
f 59//115 55//115 54//115
f 58//115 57//115 56//115
f 58//115 56//115 55//115

# 0 vertex

vn 0 0 1
# 1 normal

o キャップ_2
usemtl Mat
f 113//117 114//117 224//117
f 114//117 115//117 224//117
f 115//117 116//117 223//117
f 115//117 223//117 224//117
f 116//117 117//117 221//117
f 116//117 221//117 222//117
f 116//117 222//117 223//117
f 117//117 118//117 220//117
f 117//117 220//117 221//117
f 118//117 119//117 219//117
f 118//117 219//117 220//117
f 119//117 120//117 218//117
f 119//117 218//117 219//117
f 120//117 121//117 217//117
f 120//117 217//117 218//117
f 121//117 122//117 216//117
f 121//117 216//117 217//117
f 122//117 123//117 215//117
f 122//117 215//117 216//117
f 123//117 124//117 215//117
f 124//117 125//117 213//117
f 124//117 213//117 214//117
f 124//117 214//117 215//117
f 125//117 212//117 213//117
f 125//117 126//117 212//117
f 126//117 211//117 212//117
f 126//117 127//117 211//117
f 127//117 210//117 211//117
f 127//117 128//117 210//117
f 128//117 209//117 210//117
f 128//117 129//117 209//117
f 129//117 208//117 209//117
f 129//117 130//117 208//117
f 130//117 207//117 208//117
f 130//117 131//117 207//117
f 131//117 206//117 207//117
f 131//117 132//117 206//117
f 132//117 205//117 206//117
f 132//117 133//117 205//117
f 133//117 204//117 205//117
f 133//117 134//117 204//117
f 134//117 203//117 204//117
f 134//117 135//117 203//117
f 135//117 202//117 203//117
f 135//117 136//117 202//117
f 136//117 201//117 202//117
f 136//117 137//117 201//117
f 137//117 200//117 201//117
f 137//117 138//117 200//117
f 138//117 199//117 200//117
f 138//117 139//117 199//117
f 139//117 198//117 199//117
f 139//117 140//117 198//117
f 140//117 197//117 198//117
f 140//117 141//117 197//117
f 141//117 142//117 196//117
f 141//117 196//117 197//117
f 142//117 143//117 195//117
f 142//117 195//117 196//117
f 143//117 144//117 193//117
f 143//117 193//117 194//117
f 143//117 194//117 195//117
f 144//117 145//117 192//117
f 144//117 192//117 193//117
f 145//117 146//117 191//117
f 145//117 191//117 192//117
f 146//117 147//117 190//117
f 146//117 190//117 191//117
f 147//117 148//117 189//117
f 147//117 189//117 190//117
f 148//117 149//117 188//117
f 148//117 188//117 189//117
f 149//117 150//117 188//117
f 150//117 151//117 187//117
f 150//117 187//117 188//117
f 151//117 152//117 186//117
f 151//117 186//117 187//117
f 152//117 153//117 185//117
f 152//117 185//117 186//117
f 153//117 154//117 184//117
f 153//117 184//117 185//117
f 154//117 155//117 183//117
f 154//117 183//117 184//117
f 155//117 156//117 182//117
f 155//117 182//117 183//117
f 156//117 157//117 181//117
f 156//117 181//117 182//117
f 157//117 158//117 180//117
f 157//117 180//117 181//117
f 158//117 159//117 179//117
f 158//117 179//117 180//117
f 159//117 160//117 178//117
f 159//117 178//117 179//117
f 160//117 161//117 177//117
f 160//117 177//117 178//117
f 161//117 162//117 176//117
f 161//117 176//117 177//117
f 162//117 163//117 175//117
f 162//117 175//117 176//117
f 163//117 164//117 174//117
f 163//117 174//117 175//117
f 164//117 165//117 173//117
f 164//117 173//117 174//117
f 165//117 166//117 172//117
f 165//117 172//117 173//117
f 166//117 167//117 171//117
f 166//117 171//117 172//117
f 167//117 168//117 170//117
f 167//117 170//117 171//117
f 168//117 169//117 170//117

