# WaveFront *.obj file (generated by CINEMA 4D)

mtllib ./techneN.mtl

v -55.00534820556641 71.66783142089844 0
v -55.00534820556641 -67.30086517333984 0
v -22.00534820556641 -67.30086517333984 0
v -22.00534820556641 -3.3282675743103 0
v 45.98285293579102 -67.30867004394531 0
v 45.98285293579102 70.65222930908203 0
v 12.97385120391846 70.65222930908203 0
v 12.97385120391846 7.64703226089478 0
v -55.00534820556641 71.66783142089844 65
v -55.00534820556641 -67.30086517333984 65
v -22.00534820556641 -67.30086517333984 65
v -22.00534820556641 -3.3282675743103 65
v 45.98285293579102 -67.30867004394531 65
v 45.98285293579102 70.65222930908203 65
v 12.97385120391846 70.65222930908203 65
v 12.97385120391846 7.64703226089478 65
# 16 vertices

vn -1 0 0
vn 0 -1 0
vn 1 0 0
vn -0.6853164434433 -0.72824543714523 0
vn 0 1 0
vn 0.68559396266937 0.72798413038254 0
# 6 normals

o 押し出し
usemtl Mat
f 1//1 2//1 10//1 9//1
f 2//2 3//2 11//2 10//2
f 3//3 4//3 12//3 11//3
f 4//4 5//4 13//4 12//4
f 5//3 6//3 14//3 13//3
f 6//5 7//5 15//5 14//5
f 7//1 8//1 16//1 15//1
f 8//6 1//6 9//6 16//6

# 0 vertex

vn 0 0 -1
vn 0 0 0
# 2 normals

o キャップ_1
usemtl Mat
f 8//7 7//7 6//7
f 8//7 6//7 5//7
f 8//7 5//7 4//7
f 8//7 4//7 1//7
f 4//7 3//7 2//7
f 4//7 2//7 1//7

# 0 vertex

vn 0 0 1
# 1 normal

o キャップ_2
usemtl Mat
f 9//9 10//9 12//9
f 9//9 12//9 16//9
f 10//9 11//9 12//9
f 12//9 13//9 16//9
f 13//9 14//9 16//9
f 14//9 15//9 16//9

